<svg xmlns="http://www.w3.org/2000/svg" xmlns:xlink="http://www.w3.org/1999/xlink" width="500" zoomAndPan="magnify" viewBox="0 0 375 374.999991" height="500" preserveAspectRatio="xMidYMid meet" version="1.0"><defs><clipPath id="4f2e39d14e"><path d="M 171 149 L 225.765625 149 L 225.765625 236.828125 L 171 236.828125 Z M 171 149 " clip-rule="nonzero"/></clipPath><clipPath id="cabb077690"><path d="M 144.015625 137.828125 L 199 137.828125 L 199 226 L 144.015625 226 Z M 144.015625 137.828125 " clip-rule="nonzero"/></clipPath></defs><g clip-path="url(#4f2e39d14e)"><path fill="#a76f6f" d="M 211.371094 209.539062 L 171.265625 186.371094 L 171.265625 205.347656 L 225.769531 236.832031 L 225.769531 149.148438 L 211.371094 149.148438 L 211.371094 209.539062 " fill-opacity="1" fill-rule="nonzero"/></g><g clip-path="url(#cabb077690)"><path fill="#ffffff" d="M 144.015625 137.820312 L 144.015625 225.503906 L 158.414062 225.503906 L 158.414062 165.117188 L 198.515625 188.285156 L 198.515625 169.308594 L 144.015625 137.820312 " fill-opacity="1" fill-rule="nonzero"/></g><path stroke-linecap="butt" transform="matrix(0.748802, 0, 0, 0.75, 125.145039, 186.306213)" fill="none" stroke-linejoin="miter" d="M -0.000678727 0.997966 L 166.280608 0.997966 " stroke="#ffffff" stroke-width="2" stroke-opacity="1" stroke-miterlimit="4"/></svg>