<svg xmlns="http://www.w3.org/2000/svg" xmlns:xlink="http://www.w3.org/1999/xlink" width="500" zoomAndPan="magnify" viewBox="0 0 375 374.999991" height="500" preserveAspectRatio="xMidYMid meet" version="1.0"><defs><clipPath id="f3de498815"><path d="M 174 149 L 228.535156 149 L 228.535156 236.828125 L 174 236.828125 Z M 174 149 " clip-rule="nonzero"/></clipPath><clipPath id="aa941a44ec"><path d="M 146.785156 137.828125 L 202 137.828125 L 202 226 L 146.785156 226 Z M 146.785156 137.828125 " clip-rule="nonzero"/></clipPath></defs><g clip-path="url(#f3de498815)"><path fill="#a76f6f" d="M 214.140625 209.539062 L 174.035156 186.371094 L 174.035156 205.347656 L 228.539062 236.832031 L 228.539062 149.148438 L 214.140625 149.148438 L 214.140625 209.539062 " fill-opacity="1" fill-rule="nonzero"/></g><g clip-path="url(#aa941a44ec)"><path fill="#001c30" d="M 146.785156 137.824219 L 146.785156 225.503906 L 161.183594 225.503906 L 161.183594 165.117188 L 201.285156 188.285156 L 201.285156 169.308594 L 146.785156 137.824219 " fill-opacity="1" fill-rule="nonzero"/></g><path stroke-linecap="butt" transform="matrix(0.748802, 0, 0, 0.75, 125.145039, 186.306257)" fill="none" stroke-linejoin="miter" d="M -0.000678727 0.997908 L 166.280608 0.997908 " stroke="#a76f6f" stroke-width="2" stroke-opacity="1" stroke-miterlimit="4"/></svg>